<svg width="185" height="42" viewBox="0 0 185 42" fill="none" xmlns="http://www.w3.org/2000/svg">
<path d="M2 6.48389C2 3.17018 4.68629 0.483887 8 0.483887H166V39.4839H8C4.6863 39.4839 2 36.7976 2 33.4839V6.48389Z" fill="#E3E3E3"/>
<path d="M30.1079 18.7314V19.728H25.106V18.7314H30.1079ZM25.2964 14.7578V24H24.0713V14.7578H25.2964ZM31.1743 14.7578V24H29.9556V14.7578H31.1743ZM34.4497 17.1318V24H33.269V17.1318H34.4497ZM33.1802 15.3101C33.1802 15.1196 33.2373 14.9588 33.3516 14.8276C33.4701 14.6965 33.6436 14.6309 33.8721 14.6309C34.0964 14.6309 34.2677 14.6965 34.3862 14.8276C34.509 14.9588 34.5703 15.1196 34.5703 15.3101C34.5703 15.492 34.509 15.6486 34.3862 15.7798C34.2677 15.9067 34.0964 15.9702 33.8721 15.9702C33.6436 15.9702 33.4701 15.9067 33.3516 15.7798C33.2373 15.6486 33.1802 15.492 33.1802 15.3101ZM37.4014 22.6035V23.5493C37.4014 23.9344 37.304 24.3407 37.1094 24.7681C36.9147 25.1997 36.6418 25.5594 36.2905 25.8472L35.624 25.3838C35.7594 25.1976 35.8737 25.0072 35.9668 24.8125C36.0599 24.6221 36.1297 24.4232 36.1763 24.2158C36.2271 24.0127 36.2524 23.7969 36.2524 23.5684V22.6035H37.4014ZM43.2983 14.25V24H42.124V14.25H43.2983ZM43.019 20.3057L42.5303 20.2866C42.5345 19.8169 42.6043 19.3831 42.7397 18.9854C42.8752 18.5833 43.0656 18.2342 43.311 17.938C43.5565 17.6418 43.8485 17.4132 44.187 17.2524C44.5298 17.0874 44.9085 17.0049 45.3232 17.0049C45.6618 17.0049 45.9665 17.0514 46.2373 17.1445C46.5081 17.2334 46.7388 17.3773 46.9292 17.5762C47.1239 17.7751 47.272 18.0332 47.3735 18.3506C47.4751 18.6637 47.5259 19.0467 47.5259 19.4995V24H46.3452V19.4868C46.3452 19.1271 46.2923 18.8394 46.1865 18.6235C46.0807 18.4035 45.9263 18.2448 45.7231 18.1475C45.52 18.0459 45.2703 17.9951 44.9741 17.9951C44.6821 17.9951 44.4155 18.0565 44.1743 18.1792C43.9373 18.3019 43.7321 18.4712 43.5586 18.687C43.3893 18.9028 43.256 19.1504 43.1587 19.4297C43.0656 19.7048 43.019 19.9967 43.019 20.3057ZM48.9731 20.6421V20.4961C48.9731 20.001 49.0451 19.5418 49.189 19.1187C49.3328 18.6912 49.5402 18.321 49.811 18.0078C50.0819 17.6904 50.4098 17.445 50.7949 17.2715C51.18 17.0938 51.6117 17.0049 52.0898 17.0049C52.5723 17.0049 53.006 17.0938 53.3911 17.2715C53.7804 17.445 54.1105 17.6904 54.3813 18.0078C54.6564 18.321 54.8659 18.6912 55.0098 19.1187C55.1536 19.5418 55.2256 20.001 55.2256 20.4961V20.6421C55.2256 21.1372 55.1536 21.5964 55.0098 22.0195C54.8659 22.4427 54.6564 22.813 54.3813 23.1304C54.1105 23.4435 53.7826 23.689 53.3975 23.8667C53.0166 24.0402 52.585 24.127 52.1025 24.127C51.6201 24.127 51.1864 24.0402 50.8013 23.8667C50.4162 23.689 50.0861 23.4435 49.811 23.1304C49.5402 22.813 49.3328 22.4427 49.189 22.0195C49.0451 21.5964 48.9731 21.1372 48.9731 20.6421ZM50.1475 20.4961V20.6421C50.1475 20.9849 50.1877 21.3086 50.2681 21.6133C50.3485 21.9137 50.4691 22.1803 50.6299 22.4131C50.7949 22.6458 51.0002 22.8299 51.2456 22.9653C51.491 23.0965 51.7767 23.1621 52.1025 23.1621C52.4242 23.1621 52.7056 23.0965 52.9468 22.9653C53.1922 22.8299 53.3953 22.6458 53.5562 22.4131C53.717 22.1803 53.8376 21.9137 53.918 21.6133C54.0026 21.3086 54.0449 20.9849 54.0449 20.6421V20.4961C54.0449 20.1576 54.0026 19.8381 53.918 19.5376C53.8376 19.2329 53.7148 18.9642 53.5498 18.7314C53.389 18.4945 53.1859 18.3083 52.9404 18.1729C52.6992 18.0374 52.4157 17.9697 52.0898 17.9697C51.7682 17.9697 51.4847 18.0374 51.2393 18.1729C50.998 18.3083 50.7949 18.4945 50.6299 18.7314C50.4691 18.9642 50.3485 19.2329 50.2681 19.5376C50.1877 19.8381 50.1475 20.1576 50.1475 20.4961ZM58.4375 22.7812L60.2021 17.1318H60.9766L60.8242 18.2554L59.0278 24H58.2725L58.4375 22.7812ZM57.2505 17.1318L58.7549 22.8447L58.8628 24H58.0693L56.0762 17.1318H57.2505ZM62.665 22.8003L64.0996 17.1318H65.2676L63.2744 24H62.4873L62.665 22.8003ZM61.1479 17.1318L62.8745 22.686L63.0713 24H62.3223L60.4751 18.2427L60.3228 17.1318H61.1479ZM72.4468 23.1621C72.7261 23.1621 72.9842 23.105 73.2212 22.9907C73.4582 22.8765 73.6528 22.7199 73.8052 22.521C73.9575 22.3179 74.0443 22.0872 74.0654 21.8291H75.1826C75.1615 22.2354 75.0239 22.6141 74.77 22.9653C74.5203 23.3123 74.1924 23.5938 73.7861 23.8096C73.3799 24.0212 72.9334 24.127 72.4468 24.127C71.9305 24.127 71.4798 24.036 71.0947 23.854C70.7139 23.672 70.3965 23.4224 70.1426 23.105C69.8929 22.7876 69.7046 22.4237 69.5776 22.0132C69.4549 21.5985 69.3936 21.1605 69.3936 20.6992V20.4326C69.3936 19.9714 69.4549 19.5355 69.5776 19.125C69.7046 18.7103 69.8929 18.3442 70.1426 18.0269C70.3965 17.7095 70.7139 17.4598 71.0947 17.2778C71.4798 17.0959 71.9305 17.0049 72.4468 17.0049C72.9842 17.0049 73.4539 17.1149 73.856 17.335C74.258 17.5508 74.5732 17.847 74.8018 18.2236C75.0345 18.596 75.1615 19.0192 75.1826 19.4932H74.0654C74.0443 19.2096 73.9639 18.9536 73.8242 18.7251C73.6888 18.4966 73.5026 18.3146 73.2656 18.1792C73.0329 18.0396 72.7599 17.9697 72.4468 17.9697C72.0871 17.9697 71.7845 18.0417 71.5391 18.1855C71.2979 18.3252 71.1053 18.5156 70.9614 18.7568C70.8218 18.9938 70.7202 19.2583 70.6567 19.5503C70.5975 19.8381 70.5679 20.1322 70.5679 20.4326V20.6992C70.5679 20.9997 70.5975 21.2959 70.6567 21.5879C70.716 21.8799 70.8154 22.1444 70.9551 22.3813C71.099 22.6183 71.2915 22.8088 71.5327 22.9526C71.7782 23.0923 72.0828 23.1621 72.4468 23.1621ZM80.5527 22.8257V19.29C80.5527 19.0192 80.4977 18.7843 80.3877 18.5854C80.2819 18.3823 80.1211 18.2257 79.9053 18.1157C79.6895 18.0057 79.4229 17.9507 79.1055 17.9507C78.8092 17.9507 78.549 18.0015 78.3247 18.103C78.1047 18.2046 77.9312 18.3379 77.8042 18.5029C77.6815 18.668 77.6201 18.8457 77.6201 19.0361H76.4458C76.4458 18.7907 76.5093 18.5474 76.6362 18.3062C76.7632 18.0649 76.9451 17.847 77.1821 17.6523C77.4233 17.4535 77.7111 17.2969 78.0454 17.1826C78.384 17.0641 78.7606 17.0049 79.1753 17.0049C79.6746 17.0049 80.1147 17.0895 80.4956 17.2588C80.8807 17.4281 81.1812 17.6841 81.397 18.0269C81.617 18.3654 81.7271 18.7907 81.7271 19.3027V22.502C81.7271 22.7305 81.7461 22.9738 81.7842 23.2319C81.8265 23.4901 81.8879 23.7122 81.9683 23.8984V24H80.7432C80.6839 23.8646 80.6374 23.6847 80.6035 23.4604C80.5697 23.2319 80.5527 23.0203 80.5527 22.8257ZM80.7559 19.8359L80.7686 20.6611H79.5815C79.2472 20.6611 78.9489 20.6886 78.6865 20.7437C78.4242 20.7944 78.2041 20.8727 78.0264 20.9785C77.8486 21.0843 77.7132 21.2176 77.6201 21.3784C77.527 21.535 77.4805 21.7191 77.4805 21.9307C77.4805 22.1465 77.5291 22.3433 77.6265 22.521C77.7238 22.6987 77.8698 22.8405 78.0645 22.9463C78.2633 23.0479 78.5067 23.0986 78.7944 23.0986C79.1541 23.0986 79.4715 23.0225 79.7466 22.8701C80.0216 22.7178 80.2396 22.5316 80.4004 22.3115C80.5654 22.0915 80.6543 21.8778 80.667 21.6704L81.1685 22.2354C81.1388 22.4131 81.0584 22.6099 80.9272 22.8257C80.7961 23.0415 80.6204 23.2489 80.4004 23.4478C80.1846 23.6424 79.9264 23.8053 79.626 23.9365C79.3298 24.0635 78.9954 24.127 78.623 24.127C78.1576 24.127 77.7492 24.036 77.3979 23.854C77.0509 23.672 76.7801 23.4287 76.5854 23.124C76.395 22.8151 76.2998 22.4702 76.2998 22.0894C76.2998 21.7212 76.3717 21.3975 76.5156 21.1182C76.6595 20.8346 76.8669 20.5998 77.1377 20.4136C77.4085 20.2231 77.7344 20.0793 78.1152 19.9819C78.4961 19.8846 78.9214 19.8359 79.3911 19.8359H80.7559ZM84.7485 18.5981V24H83.5742V17.1318H84.6851L84.7485 18.5981ZM84.4692 20.3057L83.9805 20.2866C83.9847 19.8169 84.0545 19.3831 84.1899 18.9854C84.3254 18.5833 84.5158 18.2342 84.7612 17.938C85.0067 17.6418 85.2987 17.4132 85.6372 17.2524C85.98 17.0874 86.3587 17.0049 86.7734 17.0049C87.112 17.0049 87.4167 17.0514 87.6875 17.1445C87.9583 17.2334 88.189 17.3773 88.3794 17.5762C88.5741 17.7751 88.7222 18.0332 88.8237 18.3506C88.9253 18.6637 88.9761 19.0467 88.9761 19.4995V24H87.7954V19.4868C87.7954 19.1271 87.7425 18.8394 87.6367 18.6235C87.5309 18.4035 87.3765 18.2448 87.1733 18.1475C86.9702 18.0459 86.7205 17.9951 86.4243 17.9951C86.1323 17.9951 85.8657 18.0565 85.6245 18.1792C85.3875 18.3019 85.1823 18.4712 85.0088 18.687C84.8395 18.9028 84.7062 19.1504 84.6089 19.4297C84.5158 19.7048 84.4692 19.9967 84.4692 20.3057ZM95.2603 17.1318V24H94.0796V17.1318H95.2603ZM93.9907 15.3101C93.9907 15.1196 94.0479 14.9588 94.1621 14.8276C94.2806 14.6965 94.4541 14.6309 94.6826 14.6309C94.9069 14.6309 95.0783 14.6965 95.1968 14.8276C95.3195 14.9588 95.3809 15.1196 95.3809 15.3101C95.3809 15.492 95.3195 15.6486 95.1968 15.7798C95.0783 15.9067 94.9069 15.9702 94.6826 15.9702C94.4541 15.9702 94.2806 15.9067 94.1621 15.7798C94.0479 15.6486 93.9907 15.492 93.9907 15.3101ZM101.544 14.25V24H100.37V14.25H101.544ZM101.265 20.3057L100.776 20.2866C100.781 19.8169 100.85 19.3831 100.986 18.9854C101.121 18.5833 101.312 18.2342 101.557 17.938C101.803 17.6418 102.095 17.4132 102.433 17.2524C102.776 17.0874 103.155 17.0049 103.569 17.0049C103.908 17.0049 104.213 17.0514 104.483 17.1445C104.754 17.2334 104.985 17.3773 105.175 17.5762C105.37 17.7751 105.518 18.0332 105.62 18.3506C105.721 18.6637 105.772 19.0467 105.772 19.4995V24H104.591V19.4868C104.591 19.1271 104.538 18.8394 104.433 18.6235C104.327 18.4035 104.172 18.2448 103.969 18.1475C103.766 18.0459 103.516 17.9951 103.22 17.9951C102.928 17.9951 102.662 18.0565 102.42 18.1792C102.183 18.3019 101.978 18.4712 101.805 18.687C101.635 18.9028 101.502 19.1504 101.405 19.4297C101.312 19.7048 101.265 19.9967 101.265 20.3057ZM110.38 24.127C109.902 24.127 109.468 24.0465 109.079 23.8857C108.694 23.7207 108.362 23.4901 108.083 23.1938C107.807 22.8976 107.596 22.5464 107.448 22.1401C107.3 21.7339 107.226 21.2896 107.226 20.8071V20.5405C107.226 19.9819 107.308 19.4847 107.473 19.0488C107.638 18.6087 107.862 18.2363 108.146 17.9316C108.43 17.627 108.751 17.3963 109.111 17.2397C109.471 17.0832 109.843 17.0049 110.228 17.0049C110.719 17.0049 111.142 17.0895 111.498 17.2588C111.857 17.4281 112.151 17.665 112.38 17.9697C112.608 18.2702 112.778 18.6257 112.888 19.0361C112.998 19.4424 113.053 19.8867 113.053 20.3691V20.896H107.924V19.9375H111.878V19.8486C111.861 19.5439 111.798 19.2477 111.688 18.96C111.582 18.6722 111.413 18.4352 111.18 18.249C110.947 18.0628 110.63 17.9697 110.228 17.9697C109.961 17.9697 109.716 18.0269 109.492 18.1411C109.267 18.2511 109.075 18.4162 108.914 18.6362C108.753 18.8563 108.628 19.125 108.54 19.4424C108.451 19.7598 108.406 20.1258 108.406 20.5405V20.8071C108.406 21.133 108.451 21.4398 108.54 21.7275C108.633 22.0111 108.766 22.2607 108.939 22.4766C109.117 22.6924 109.331 22.8617 109.581 22.9844C109.834 23.1071 110.122 23.1685 110.444 23.1685C110.859 23.1685 111.21 23.0838 111.498 22.9146C111.785 22.7453 112.037 22.5189 112.253 22.2354L112.964 22.8003C112.816 23.0246 112.627 23.2383 112.399 23.4414C112.17 23.6445 111.889 23.8096 111.555 23.9365C111.225 24.0635 110.833 24.127 110.38 24.127ZM115.7 14.25V24H114.519V14.25H115.7ZM118.759 18.4521V26.6406H117.579V17.1318H118.658L118.759 18.4521ZM123.387 20.5088V20.6421C123.387 21.1414 123.327 21.6048 123.209 22.0322C123.09 22.4554 122.917 22.8236 122.688 23.1367C122.464 23.4499 122.187 23.6932 121.857 23.8667C121.527 24.0402 121.148 24.127 120.721 24.127C120.285 24.127 119.9 24.055 119.565 23.9111C119.231 23.7673 118.948 23.5578 118.715 23.2827C118.482 23.0076 118.296 22.6776 118.156 22.2925C118.021 21.9074 117.928 21.4736 117.877 20.9912V20.2803C117.928 19.7725 118.023 19.3175 118.163 18.9155C118.302 18.5135 118.486 18.1707 118.715 17.8872C118.948 17.5994 119.229 17.3815 119.559 17.2334C119.889 17.0811 120.27 17.0049 120.702 17.0049C121.133 17.0049 121.516 17.0895 121.851 17.2588C122.185 17.4238 122.466 17.6608 122.695 17.9697C122.923 18.2786 123.095 18.6489 123.209 19.0806C123.327 19.508 123.387 19.984 123.387 20.5088ZM122.206 20.6421V20.5088C122.206 20.166 122.17 19.8444 122.098 19.5439C122.026 19.2393 121.914 18.9727 121.762 18.7441C121.614 18.5114 121.423 18.3294 121.19 18.1982C120.958 18.0628 120.681 17.9951 120.359 17.9951C120.063 17.9951 119.805 18.0459 119.584 18.1475C119.369 18.249 119.185 18.3866 119.032 18.5601C118.88 18.7293 118.755 18.924 118.658 19.144C118.565 19.3599 118.495 19.5841 118.448 19.8169V21.4609C118.533 21.7572 118.651 22.0365 118.804 22.2988C118.956 22.557 119.159 22.7664 119.413 22.9272C119.667 23.0838 119.986 23.1621 120.372 23.1621C120.689 23.1621 120.962 23.0965 121.19 22.9653C121.423 22.8299 121.614 22.6458 121.762 22.4131C121.914 22.1803 122.026 21.9137 122.098 21.6133C122.17 21.3086 122.206 20.9849 122.206 20.6421ZM130.039 23.2891L131.95 17.1318H133.207L130.452 25.0601C130.388 25.2293 130.304 25.4113 130.198 25.606C130.096 25.8049 129.965 25.9932 129.804 26.1709C129.643 26.3486 129.449 26.4925 129.22 26.6025C128.996 26.7168 128.727 26.7739 128.414 26.7739C128.321 26.7739 128.202 26.7612 128.059 26.7358C127.915 26.7104 127.813 26.6893 127.754 26.6724L127.748 25.7202C127.781 25.7244 127.834 25.7287 127.906 25.7329C127.982 25.7414 128.035 25.7456 128.065 25.7456C128.332 25.7456 128.558 25.7096 128.744 25.6377C128.93 25.57 129.087 25.4536 129.214 25.2886C129.345 25.1278 129.457 24.9056 129.55 24.6221L130.039 23.2891ZM128.636 17.1318L130.42 22.4639L130.725 23.7017L129.88 24.1333L127.354 17.1318H128.636ZM133.854 20.6421V20.4961C133.854 20.001 133.926 19.5418 134.07 19.1187C134.214 18.6912 134.421 18.321 134.692 18.0078C134.963 17.6904 135.291 17.445 135.676 17.2715C136.061 17.0938 136.493 17.0049 136.971 17.0049C137.453 17.0049 137.887 17.0938 138.272 17.2715C138.661 17.445 138.991 17.6904 139.262 18.0078C139.537 18.321 139.747 18.6912 139.891 19.1187C140.035 19.5418 140.106 20.001 140.106 20.4961V20.6421C140.106 21.1372 140.035 21.5964 139.891 22.0195C139.747 22.4427 139.537 22.813 139.262 23.1304C138.991 23.4435 138.663 23.689 138.278 23.8667C137.897 24.0402 137.466 24.127 136.983 24.127C136.501 24.127 136.067 24.0402 135.682 23.8667C135.297 23.689 134.967 23.4435 134.692 23.1304C134.421 22.813 134.214 22.4427 134.07 22.0195C133.926 21.5964 133.854 21.1372 133.854 20.6421ZM135.028 20.4961V20.6421C135.028 20.9849 135.069 21.3086 135.149 21.6133C135.229 21.9137 135.35 22.1803 135.511 22.4131C135.676 22.6458 135.881 22.8299 136.126 22.9653C136.372 23.0965 136.658 23.1621 136.983 23.1621C137.305 23.1621 137.586 23.0965 137.828 22.9653C138.073 22.8299 138.276 22.6458 138.437 22.4131C138.598 22.1803 138.718 21.9137 138.799 21.6133C138.883 21.3086 138.926 20.9849 138.926 20.6421V20.4961C138.926 20.1576 138.883 19.8381 138.799 19.5376C138.718 19.2329 138.596 18.9642 138.431 18.7314C138.27 18.4945 138.067 18.3083 137.821 18.1729C137.58 18.0374 137.297 17.9697 136.971 17.9697C136.649 17.9697 136.366 18.0374 136.12 18.1729C135.879 18.3083 135.676 18.4945 135.511 18.7314C135.35 18.9642 135.229 19.2329 135.149 19.5376C135.069 19.8381 135.028 20.1576 135.028 20.4961ZM145.781 22.4131V17.1318H146.962V24H145.838L145.781 22.4131ZM146.003 20.9658L146.492 20.9531C146.492 21.4102 146.444 21.8333 146.346 22.2227C146.253 22.6077 146.101 22.9421 145.889 23.2256C145.678 23.5091 145.4 23.7313 145.058 23.8921C144.715 24.0487 144.298 24.127 143.807 24.127C143.473 24.127 143.166 24.0783 142.887 23.981C142.612 23.8836 142.375 23.7334 142.176 23.5303C141.977 23.3271 141.822 23.0627 141.712 22.7368C141.607 22.411 141.554 22.0195 141.554 21.5625V17.1318H142.728V21.5752C142.728 21.8841 142.762 22.1401 142.83 22.3433C142.902 22.5422 142.997 22.7008 143.115 22.8193C143.238 22.9336 143.373 23.014 143.521 23.0605C143.674 23.1071 143.83 23.1304 143.991 23.1304C144.491 23.1304 144.886 23.0352 145.178 22.8447C145.47 22.6501 145.68 22.3898 145.807 22.064C145.938 21.7339 146.003 21.3678 146.003 20.9658ZM151.304 21.3975H150.123C150.127 20.9912 150.163 20.659 150.231 20.4009C150.303 20.1385 150.419 19.8994 150.58 19.6836C150.741 19.4678 150.955 19.2223 151.221 18.9473C151.416 18.7484 151.594 18.5622 151.754 18.3887C151.919 18.2109 152.053 18.0205 152.154 17.8174C152.256 17.61 152.307 17.3625 152.307 17.0747C152.307 16.7827 152.254 16.5309 152.148 16.3193C152.046 16.1077 151.894 15.9448 151.691 15.8306C151.492 15.7163 151.244 15.6592 150.948 15.6592C150.703 15.6592 150.47 15.7036 150.25 15.7925C150.03 15.8813 149.852 16.0189 149.717 16.2051C149.581 16.387 149.512 16.6261 149.507 16.9224H148.333C148.341 16.4442 148.46 16.0337 148.688 15.6909C148.921 15.3481 149.234 15.0858 149.628 14.9038C150.021 14.7218 150.462 14.6309 150.948 14.6309C151.486 14.6309 151.943 14.7282 152.319 14.9229C152.7 15.1175 152.99 15.3968 153.189 15.7607C153.388 16.1204 153.487 16.5479 153.487 17.043C153.487 17.4238 153.409 17.7751 153.252 18.0967C153.1 18.4141 152.903 18.7124 152.662 18.9917C152.421 19.271 152.165 19.5376 151.894 19.7915C151.661 20.0073 151.505 20.2507 151.424 20.5215C151.344 20.7923 151.304 21.0843 151.304 21.3975ZM150.072 23.4097C150.072 23.2192 150.132 23.0584 150.25 22.9272C150.368 22.7961 150.54 22.7305 150.764 22.7305C150.993 22.7305 151.166 22.7961 151.285 22.9272C151.403 23.0584 151.462 23.2192 151.462 23.4097C151.462 23.5916 151.403 23.7482 151.285 23.8794C151.166 24.0106 150.993 24.0762 150.764 24.0762C150.54 24.0762 150.368 24.0106 150.25 23.8794C150.132 23.7482 150.072 23.5916 150.072 23.4097Z" fill="#282828"/>
<path d="M184.397 20.0161L166.099 39.0827V0.949602L184.397 20.0161Z" fill="#E3E3E3"/>
</svg>
