<svg width="45" height="46" viewBox="0 0 45 46" fill="none" xmlns="http://www.w3.org/2000/svg">
<circle cx="22.5" cy="22.7659" r="22.5" fill="#1FA6F2"/>
<path d="M34.0001 20.6333V16.6667C34.0001 15.9594 33.7191 15.2811 33.219 14.781C32.7189 14.2809 32.0407 14 31.3334 14H23.3334V12.2507C23.7401 11.8853 24.0001 11.36 24.0001 10.7707C24.0001 10.2402 23.7894 9.73152 23.4143 9.35645C23.0392 8.98137 22.5305 8.77066 22.0001 8.77066C21.4696 8.77066 20.9609 8.98137 20.5859 9.35645C20.2108 9.73152 20.0001 10.2402 20.0001 10.7707C20.0001 11.36 20.2601 11.8853 20.6667 12.2507V14H12.6667C11.9595 14 11.2812 14.2809 10.7811 14.781C10.281 15.2811 10.0001 15.9594 10.0001 16.6667V20.664L9.90408 20.6707C9.56793 20.6946 9.25336 20.8451 9.02375 21.0918C8.79414 21.3384 8.66657 21.663 8.66675 22V24.6667C8.66675 25.0203 8.80722 25.3594 9.05727 25.6095C9.30732 25.8595 9.64646 26 10.0001 26V32.6667C10.0001 33.3739 10.281 34.0522 10.7811 34.5523C11.2812 35.0524 11.9595 35.3333 12.6667 35.3333H31.3334C32.0407 35.3333 32.7189 35.0524 33.219 34.5523C33.7191 34.0522 34.0001 33.3739 34.0001 32.6667V26C34.3537 26 34.6928 25.8595 34.9429 25.6095C35.1929 25.3594 35.3334 25.0203 35.3334 24.6667V22.0827C35.3489 21.8757 35.316 21.668 35.2374 21.476C34.9681 20.8253 34.3907 20.6693 34.0001 20.6333ZM15.3334 22C15.3334 20.528 16.2294 19.3333 17.3334 19.3333C18.4374 19.3333 19.3334 20.528 19.3334 22C19.3334 23.472 18.4374 24.6667 17.3334 24.6667C16.2294 24.6667 15.3334 23.472 15.3334 22ZM27.3307 30C25.9961 29.996 16.6667 30 16.6667 30V27.3333C16.6667 27.3333 26.0014 27.3307 27.3361 27.3333L27.3307 30ZM26.6667 24.6667C25.5627 24.6667 24.6667 23.472 24.6667 22C24.6667 20.528 25.5627 19.3333 26.6667 19.3333C27.7707 19.3333 28.6667 20.528 28.6667 22C28.6667 23.472 27.7707 24.6667 26.6667 24.6667Z" fill="white"/>
</svg>
