<svg width="53" height="46" viewBox="0 0 53 46" fill="none" xmlns="http://www.w3.org/2000/svg">
<ellipse cx="26.5408" cy="22.7659" rx="26.4592" ry="22.5" fill="#1FA6F2"/>
<path d="M17.0678 14.7C17.0678 12.6578 18.1278 10.6993 20.0146 9.25528C21.9014 7.81125 24.4605 7 27.1288 7C29.7972 7 32.3562 7.81125 34.243 9.25528C36.1298 10.6993 37.1898 12.6578 37.1898 14.7C37.1898 16.7422 36.1298 18.7007 34.243 20.1447C32.3562 21.5888 29.7972 22.4 27.1288 22.4C24.4605 22.4 21.9014 21.5888 20.0146 20.1447C18.1278 18.7007 17.0678 16.7422 17.0678 14.7ZM10.6653 30.8C10.6653 28.9435 11.6289 27.163 13.3442 25.8503C15.0595 24.5375 17.3859 23.8 19.8117 23.8H34.4459C36.8717 23.8 39.1981 24.5375 40.9134 25.8503C42.6287 27.163 43.5923 28.9435 43.5923 30.8V35H10.6653V30.8Z" fill="#FAFAFA"/>
</svg>
